<svg width="6" height="10" viewBox="0 0 6 10" fill="none" xmlns="http://www.w3.org/2000/svg">
<path fill-rule="evenodd" clip-rule="evenodd" d="M0.903654 1.02882C0.932683 0.999718 0.967167 0.976629 1.00513 0.960875C1.0431 0.945121 1.0838 0.937012 1.1249 0.937012C1.16601 0.937012 1.20671 0.945121 1.24468 0.960875C1.28264 0.976629 1.31713 0.999718 1.34615 1.02882L5.09615 4.77882C5.12525 4.80785 5.14834 4.84233 5.1641 4.8803C5.17985 4.91827 5.18796 4.95897 5.18796 5.00007C5.18796 5.04118 5.17985 5.08188 5.1641 5.11984C5.14834 5.15781 5.12525 5.19229 5.09615 5.22132L1.34615 8.97132C1.28747 9.03 1.20789 9.06297 1.1249 9.06297C1.04192 9.06297 0.962333 9.03 0.903654 8.97132C0.844975 8.91264 0.812009 8.83306 0.812009 8.75007C0.812009 8.66709 0.844975 8.5875 0.903654 8.52882L4.43303 5.00007L0.903654 1.47132C0.874552 1.44229 0.851463 1.40781 0.835709 1.36984C0.819955 1.33188 0.811846 1.29117 0.811846 1.25007C0.811846 1.20897 0.819955 1.16827 0.835709 1.1303C0.851463 1.09233 0.874552 1.05785 0.903654 1.02882Z" fill="black"/>
</svg>
